<svg xmlns="http://www.w3.org/2000/svg" width="2204.613" height="1373.308" viewBox="0 0 2204.613 1373.308">
  <g id="Curve_Line_1_" data-name="Curve Line (1)" transform="translate(284.613 293.308)">
    <rect id="Rectangle_3" data-name="Rectangle 3" width="1920" height="1080" fill="#0e2a47"/>
    <path id="Path_1" data-name="Path 1" d="M537.18,1065.94c200.924-38.309,250.576-531.626,613.28-565.971s448.125-253.6,613.288-258.369" transform="translate(-690.415 -241.6)" fill="none" stroke="rgba(170,173,255,0.58)" stroke-width="2"/>
    <path id="Path_2" data-name="Path 2" d="M531.86,1128.31c153.22-5.88,277.54-253.9,558.25-254.07s279.12,135,558.24,135,414.67-134.05,558.25-135" transform="matrix(0.899, -0.438, 0.438, 0.899, -1145.414, 43.374)" fill="none" stroke="rgba(170,173,255,0.58)" stroke-width="2"/>
    <path id="Path_3" data-name="Path 3" d="M638.83,1220.68c93.352-14.864,156.125-117.511,231.808-228.957,92.791-136.64,204.932-286.52,416.192-305.973a810.13,810.13,0,0,0,97.567-14.833C1687.242,605.2,1772.474,390,1934.84,383.35" transform="translate(-922.97 -467)" fill="none" stroke="rgba(170,173,255,0.58)" stroke-width="2"/>
    <path id="Path_4" data-name="Path 4" d="M1269.19,1087.53c179.21-53.42,174.98-509.26,493.27-562.31s352.96-261.36,493.28-270" transform="translate(-1455 -547.53)" fill="none" stroke="rgba(170,173,255,0.58)" stroke-width="2"/>
    <path id="Path_5" data-name="Path 5" d="M368.71,1148.251c146.056-11.439,249.507-321.985,506.4-322.671,40.846-.109,75.1,3.162,104.713,8.715,157.5,29.536,188.746,123.616,401.687,123.616,253.2,0,376.259-131.419,506.4-132.331" transform="translate(-773.462 -70.007) rotate(-22)" fill="none" stroke="rgba(170,173,255,0.58)" stroke-width="2"/>
  </g>
</svg>
