<svg xmlns="http://www.w3.org/2000/svg" width="24" height="24" viewBox="0 0 24 24">
  <path id="ig" d="M11.984,16.815a4.7,4.7,0,1,0-4.706-4.706,4.711,4.711,0,0,0,4.706,4.706ZM12,8.631a3.478,3.478,0,1,1-3.479,3.478A3.479,3.479,0,0,1,12,8.631ZM17.223,9H24V19.278A4.722,4.722,0,0,1,19.278,24H4.785A4.776,4.776,0,0,1,0,19.278V9H6.747a6.048,6.048,0,0,0-.872,3.109,6.109,6.109,0,0,0,12.218,0A6.047,6.047,0,0,0,17.223,9Zm2.055-9H7V5H6V0H5V5H4V.077a4.79,4.79,0,0,0-1,.27V5H2V.9A4.7,4.7,0,0,0,0,4.722V8H7.473A6.087,6.087,0,0,1,16.5,8H24V4.722A4.722,4.722,0,0,0,19.278,0ZM22,5.265A.74.74,0,0,1,21.255,6H18.744A.739.739,0,0,1,18,5.265V2.735A.739.739,0,0,1,18.744,2h2.511A.74.74,0,0,1,22,2.735v2.53Z" fill="#06D6A0"/>
</svg>
