<svg xmlns="http://www.w3.org/2000/svg" width="300" height="300" viewBox="0 0 300 300">
  <g id="Group_14" data-name="Group 14" transform="translate(-1090 182)">
    <rect id="Rectangle_20" data-name="Rectangle 20" width="300" height="300" transform="translate(1090 -182)" fill="#b7b7b7"/>
    <path id="photo-camera-crossed-svgrepo-com" d="M81.848,134.572A39.259,39.259,0,0,1,50.923,71.078l55.12,55.117A39.082,39.082,0,0,1,81.848,134.572ZM24.96,141.286a11.823,11.823,0,0,1-11.809-11.809V62.935A11.823,11.823,0,0,1,24.96,51.127h6.015l-8.662-8.665A20.679,20.679,0,0,0,4.3,62.935v66.542A20.688,20.688,0,0,0,24.962,150.14H129.988l-8.854-8.854Zm148.81,32.486a5.9,5.9,0,0,1-8.347,0L1.729,10.076a5.9,5.9,0,0,1,8.347-8.347l36.6,36.6A21.363,21.363,0,0,1,66.3,25.361H97.4a21.375,21.375,0,0,1,20.878,16.914h20.459A20.688,20.688,0,0,1,159.4,62.938v66.539a20.51,20.51,0,0,1-6.567,15.011l20.937,20.937A5.9,5.9,0,0,1,173.769,173.772ZM53.922,45.575,67.17,58.824A39.289,39.289,0,0,1,118.3,109.951l28.283,28.283a11.734,11.734,0,0,0,3.964-8.76V62.935a11.823,11.823,0,0,0-11.809-11.809H114.313a4.429,4.429,0,0,1-4.427-4.427A12.5,12.5,0,0,0,97.4,34.212H66.3A12.469,12.469,0,0,0,53.922,45.575Z" transform="translate(1152.25 -119.751)"/>
  </g>
</svg>
