<svg xmlns="http://www.w3.org/2000/svg" width="27.94" height="20.955" viewBox="0 0 27.94 20.955">
  <path id="envelope" d="M27.41,70.919a.329.329,0,0,1,.529.256v11.16a2.62,2.62,0,0,1-2.619,2.619H2.619A2.62,2.62,0,0,1,0,82.335V71.181a.326.326,0,0,1,.529-.256c1.222.95,2.843,2.156,8.409,6.2,1.151.84,3.094,2.608,5.031,2.6,1.948.016,3.929-1.79,5.037-2.6C24.573,73.08,26.188,71.869,27.41,70.919ZM13.97,77.97c1.266.022,3.089-1.593,4.005-2.259,7.241-5.255,7.793-5.713,9.462-7.023a1.306,1.306,0,0,0,.5-1.031V66.619A2.62,2.62,0,0,0,25.32,64H2.619A2.62,2.62,0,0,0,0,66.619v1.037a1.314,1.314,0,0,0,.5,1.031c1.67,1.3,2.221,1.768,9.462,7.023C10.881,76.376,12.7,77.992,13.97,77.97Z" transform="translate(0 -64)" fill="rgba(0,0,0,0.6)"/>
</svg>
