<svg xmlns="http://www.w3.org/2000/svg" width="16.43" height="24" viewBox="0 0 16.43 24">
  <path id="iconmonstr-phone-thin" d="M8.26,1.289,6.7,2.061c-5.793,3.02,2.8,20.944,9.31,20.944a3.129,3.129,0,0,0,1.317-.284l1.542-.755-2.9-5.594-1.54.754a1.375,1.375,0,0,1-.6.134c-2.561,0-6.841-8.2-4.241-9.6L11.135,6.9,8.26,1.289ZM16.006,24C10.326,24,3.785,12.886,3.785,6.168c0-2.419.833-4.146,2.457-4.992L8.624,0l3.857,7.347-2.437,1.2c-1.439.772,2.409,8.424,3.956,7.68l2.4-1.179,3.816,7.36s-2.36,1.162-2.476,1.215A4.121,4.121,0,0,1,16.006,24" transform="translate(-3.785)" fill="red" fill-rule="evenodd"/>
</svg>
