<svg xmlns="http://www.w3.org/2000/svg" width="275.464" height="126.599" viewBox="0 0 275.464 126.599">
  <g id="logo-color" transform="translate(-148.444 -305.277)">
    <g id="Group_61" data-name="Group 61" transform="translate(149.576 282.127)">
      <g id="Group_60" data-name="Group 60" transform="translate(-2)">
        <g id="tight-bounds" transform="translate(0.168 -0.07)">
          <g id="Group_59" data-name="Group 59">
            <g id="Group_58" data-name="Group 58">
              <g id="Group_57" data-name="Group 57">
                <g id="Group_42" data-name="Group 42">
                  <g id="Group_41" data-name="Group 41">
                    <path id="Path_117" data-name="Path 117" d="M126.748,149.82H91.233L52.321,104.849h74.427Zm-88.693,0H.7V104.849H38.054ZM.7,23.22H36.214L74.552,68.191H.7Zm88.693,0h37.355V68.191H89.393Zm148.865,0a39.382,39.382,0,0,1,17.592,3.938,31.823,31.823,0,0,1,12.7,11.151,28.709,28.709,0,0,1,4.674,16.009,36.345,36.345,0,0,1-2.439,13.873h-40.29A10.28,10.28,0,0,0,232,62.6v-1.84a9.623,9.623,0,0,0-2.76-6.919,8.919,8.919,0,0,0-6.625-2.834H194.648V68.191H153.981V23.22Zm37.906,92.925a31.937,31.937,0,0,1-4.858,17.555,33.05,33.05,0,0,1-13.359,11.887,40.964,40.964,0,0,1-18.585,4.232H153.981V104.849h40.667v15.53h30.913a8.837,8.837,0,0,0,6.735-2.871,9.95,9.95,0,0,0,2.65-7.067V108.6a11.111,11.111,0,0,0-.612-3.753h40.457A43.162,43.162,0,0,1,276.164,116.145Z" fill="#45a0fc"/>
                  </g>
                </g>
                <g id="Group_56" data-name="Group 56" transform="translate(10.01 97.332)">
                  <g id="Group_55" data-name="Group 55">
                    <g id="Group_54" data-name="Group 54">
                      <g id="Group_53" data-name="Group 53">
                        <g id="Group_52" data-name="Group 52">
                          <g id="Group_51" data-name="Group 51">
                            <g id="Group_50" data-name="Group 50">
                              <g id="Group_49" data-name="Group 49">
                                <g id="Group_48" data-name="Group 48">
                                  <g id="Group_47" data-name="Group 47">
                                    <g id="Group_46" data-name="Group 46">
                                      <g id="Group_45" data-name="Group 45">
                                        <g id="Group_44" data-name="Group 44">
                                          <g id="Group_43" data-name="Group 43">
                                            <path id="text-0" d="M26.565,0H19.81L9.695-11.69V0H2.59V-24.08H9.345L19.46-12.215V-24.08h7.105ZM40.39-18.9a14.657,14.657,0,0,1,6.9,1.414,4.837,4.837,0,0,1,2.66,4.606h0v7.21a1.624,1.624,0,0,0,.28.98.971.971,0,0,0,.84.385h1.26V-.28a3.208,3.208,0,0,1-.546.224A8.62,8.62,0,0,1,50.54.266,9.954,9.954,0,0,1,48.685.42h0A7.907,7.907,0,0,1,45.339-.2a3.466,3.466,0,0,1-1.8-1.694h0A11.275,11.275,0,0,1,40.565-.21a10.739,10.739,0,0,1-3.85.63h0Q30.2.42,30.2-4.76h0a5.51,5.51,0,0,1,1.449-4.116,8.042,8.042,0,0,1,4.186-1.939,39.188,39.188,0,0,1,7.14-.525h0v-.91a1.919,1.919,0,0,0-.756-1.645,3.154,3.154,0,0,0-1.939-.56h0a4.246,4.246,0,0,0-1.876.385,1.281,1.281,0,0,0-.784,1.225h0v.14h-6.86a2.642,2.642,0,0,1-.035-.49h0a4.7,4.7,0,0,1,2.5-4.165A13.755,13.755,0,0,1,40.39-18.9ZM42.98-8.05a11.255,11.255,0,0,0-4.4.644Q37.17-6.755,37.17-5.67h0q0,1.75,2.38,1.75h0a4.012,4.012,0,0,0,2.394-.735,2.172,2.172,0,0,0,1.036-1.82h0Zm27.93-8.26L63.063-4.725h8.162V0H53.2V-2.275l7.763-11.48h-7.35V-18.48h17.3ZM92.813,0h-5.67l-.6-2.625A6.633,6.633,0,0,1,80.668.42h0a7.077,7.077,0,0,1-5.775-2.45q-2.03-2.45-2.03-7.245h0q0-4.76,2.03-7.2A7.105,7.105,0,0,1,80.668-18.9h0a6.766,6.766,0,0,1,5.18,2.135h0v-8.61h6.965ZM82.838-13.755q-3.01,0-3.01,3.6h0V-8.3q0,3.57,3.01,3.57h0a2.646,2.646,0,0,0,2.31-1.085,4.793,4.793,0,0,0,.77-2.835h0V-9.8a4.859,4.859,0,0,0-.77-2.849,2.628,2.628,0,0,0-2.31-1.106ZM106.183-18.9a14.657,14.657,0,0,1,6.895,1.414,4.837,4.837,0,0,1,2.66,4.606h0v7.21a1.624,1.624,0,0,0,.28.98.971.971,0,0,0,.84.385h1.26V-.28a3.216,3.216,0,0,1-.539.224,8.934,8.934,0,0,1-1.246.322,9.954,9.954,0,0,1-1.855.154h0A7.858,7.858,0,0,1,111.139-.2a3.465,3.465,0,0,1-1.806-1.694h0a11.275,11.275,0,0,1-2.975,1.68,10.739,10.739,0,0,1-3.85.63h0Q96,.42,96-4.76h0a5.494,5.494,0,0,1,1.456-4.116,8,8,0,0,1,4.179-1.939,39.188,39.188,0,0,1,7.14-.525h0v-.91a1.926,1.926,0,0,0-.749-1.645,3.185,3.185,0,0,0-1.946-.56h0a4.2,4.2,0,0,0-1.869.385,1.28,1.28,0,0,0-.791,1.225h0v.14h-6.86a2.641,2.641,0,0,1-.035-.49h0a4.7,4.7,0,0,1,2.506-4.165,13.716,13.716,0,0,1,7.154-1.54Zm2.59,10.85a11.2,11.2,0,0,0-4.389.644q-1.421.651-1.421,1.736h0q0,1.75,2.38,1.75h0a4.043,4.043,0,0,0,2.4-.735,2.176,2.176,0,0,0,1.029-1.82h0Zm22.855-10.885a5,5,0,0,1,1.435.189,2.643,2.643,0,0,1,.63.231h0v5.845h-2.24a3.936,3.936,0,0,0-3.136,1.12,4.994,4.994,0,0,0-.959,3.325h0V0h-6.965V-18.48h5.7l.455,2.8a4.784,4.784,0,0,1,2-2.436,5.87,5.87,0,0,1,3.08-.819ZM164.1-24.08a7.49,7.49,0,0,1,3.346.749,6.054,6.054,0,0,1,2.415,2.121,5.46,5.46,0,0,1,.889,3.045h0q0,4.445-4.025,5.6h0v.14q4.585,1.05,4.585,6.02h0a6.075,6.075,0,0,1-.924,3.339A6.285,6.285,0,0,1,167.846-.8a7.793,7.793,0,0,1-3.535.8h-16.24V-24.08ZM155.806-18.8v4.1h5.32a1.681,1.681,0,0,0,1.281-.546,1.892,1.892,0,0,0,.5-1.344h0v-.35a1.83,1.83,0,0,0-.525-1.316,1.7,1.7,0,0,0-1.26-.539h-5.32Zm0,9.065V-5.6h5.88a1.681,1.681,0,0,0,1.281-.546,1.892,1.892,0,0,0,.5-1.344h0v-.35a1.917,1.917,0,0,0-.5-1.351,1.691,1.691,0,0,0-1.281-.539h-5.88Zm28.14-9.17a14.657,14.657,0,0,1,6.9,1.414,4.837,4.837,0,0,1,2.66,4.606h0v7.21a1.624,1.624,0,0,0,.28.98.971.971,0,0,0,.84.385h1.26V-.28a3.215,3.215,0,0,1-.539.224A8.934,8.934,0,0,1,194.1.266a9.954,9.954,0,0,1-1.855.154h0A7.859,7.859,0,0,1,188.9-.2,3.465,3.465,0,0,1,187.1-1.89h0a11.275,11.275,0,0,1-2.975,1.68,10.739,10.739,0,0,1-3.85.63h0q-6.51,0-6.51-5.18h0a5.494,5.494,0,0,1,1.456-4.116,8,8,0,0,1,4.179-1.939,39.188,39.188,0,0,1,7.14-.525h0v-.91a1.926,1.926,0,0,0-.749-1.645,3.185,3.185,0,0,0-1.946-.56h0a4.2,4.2,0,0,0-1.869.385,1.28,1.28,0,0,0-.791,1.225h0v.14h-6.86a2.64,2.64,0,0,1-.035-.49h0a4.7,4.7,0,0,1,2.506-4.165,13.716,13.716,0,0,1,7.154-1.54Zm2.59,10.85a11.2,11.2,0,0,0-4.389.644q-1.421.651-1.421,1.736h0q0,1.75,2.38,1.75h0a4.012,4.012,0,0,0,2.394-.735,2.173,2.173,0,0,0,1.036-1.82h0Zm27.93-8.26-7.84,11.585h8.155V0H196.756V-2.275l7.77-11.48h-7.35V-18.48h17.29Zm12.285-2.59a14.657,14.657,0,0,1,6.9,1.414,4.837,4.837,0,0,1,2.66,4.606h0v7.21a1.624,1.624,0,0,0,.28.98.971.971,0,0,0,.84.385h1.26V-.28a3.209,3.209,0,0,1-.546.224A8.621,8.621,0,0,1,236.9.266a9.954,9.954,0,0,1-1.855.154h0A7.907,7.907,0,0,1,231.7-.2a3.467,3.467,0,0,1-1.8-1.694h0a11.275,11.275,0,0,1-2.975,1.68,10.739,10.739,0,0,1-3.85.63h0q-6.51,0-6.51-5.18h0a5.51,5.51,0,0,1,1.449-4.116,8.042,8.042,0,0,1,4.186-1.939,39.188,39.188,0,0,1,7.14-.525h0v-.91a1.919,1.919,0,0,0-.756-1.645,3.154,3.154,0,0,0-1.939-.56h0a4.246,4.246,0,0,0-1.876.385,1.281,1.281,0,0,0-.784,1.225h0v.14h-6.86a2.642,2.642,0,0,1-.035-.49h0a4.7,4.7,0,0,1,2.5-4.165,13.755,13.755,0,0,1,7.161-1.54Zm2.59,10.85a11.255,11.255,0,0,0-4.4.644q-1.414.651-1.414,1.736h0q0,1.75,2.38,1.75h0a4.012,4.012,0,0,0,2.394-.735,2.173,2.173,0,0,0,1.036-1.82h0Zm22.848-10.885a5,5,0,0,1,1.435.189,2.642,2.642,0,0,1,.63.231h0v5.845h-2.24a3.914,3.914,0,0,0-3.129,1.12,4.969,4.969,0,0,0-.966,3.325h0V0h-6.965V-18.48h5.705l.455,2.8a4.784,4.784,0,0,1,2-2.436,5.87,5.87,0,0,1,3.08-.819Z" fill="#45a0fc"/>
                                          </g>
                                        </g>
                                      </g>
                                    </g>
                                  </g>
                                </g>
                              </g>
                            </g>
                          </g>
                        </g>
                      </g>
                    </g>
                  </g>
                </g>
              </g>
            </g>
          </g>
        </g>
      </g>
    </g>
  </g>
</svg>
