<svg xmlns="http://www.w3.org/2000/svg" width="53" height="42" viewBox="0 0 53 42">
  <g id="logo-small-black" transform="translate(-66 -10.176)">
    <g id="Group_5" data-name="Group 5" transform="translate(66 10)">
      <g id="Rectangle_3" data-name="Rectangle 3" transform="translate(0 0.176)" fill="none" stroke="#000" stroke-width="3">
        <rect width="53" height="34" stroke="none"/>
        <rect x="1.5" y="1.5" width="50" height="31" fill="none"/>
      </g>
      <g id="Rectangle_4" data-name="Rectangle 4" transform="translate(2 26.176)" stroke="#000" stroke-width="1">
        <rect width="50" height="2" stroke="none"/>
        <rect x="0.5" y="0.5" width="49" height="1" fill="none"/>
      </g>
      <g id="Group_3" data-name="Group 3" transform="translate(9.549 7.162)">
        <g id="Group_1" data-name="Group 1" transform="translate(0 0)">
          <rect id="Rectangle_5" data-name="Rectangle 5" width="5" height="5" rx="1" transform="translate(0.451 0.014)" fill="none" stroke="#000" stroke-width="2"/>
          <g id="Rectangle_6" data-name="Rectangle 6" transform="translate(8.451 0.014)" stroke="#000" stroke-width="1">
            <rect width="6" height="2" stroke="none"/>
            <rect x="0.5" y="0.5" width="5" height="1" fill="none"/>
          </g>
          <g id="Rectangle_7" data-name="Rectangle 7" transform="translate(8.451 3.014)" stroke="#000" stroke-width="1">
            <rect width="3" height="1" stroke="none"/>
            <rect x="0.5" y="0.5" width="2" fill="none"/>
          </g>
        </g>
        <g id="Group_2" data-name="Group 2" transform="translate(19.894 0)">
          <rect id="Rectangle_5-2" data-name="Rectangle 5" width="5" height="5" rx="1" transform="translate(-0.443 0.014)" fill="none" stroke="#000" stroke-width="2"/>
          <g id="Rectangle_6-2" data-name="Rectangle 6" transform="translate(7.557 0.014)" stroke="#000" stroke-width="1">
            <rect width="6" height="2" stroke="none"/>
            <rect x="0.5" y="0.5" width="5" height="1" fill="none"/>
          </g>
          <g id="Rectangle_7-2" data-name="Rectangle 7" transform="translate(7.557 3.014)" stroke="#000" stroke-width="1">
            <rect width="4" height="1" stroke="none"/>
            <rect x="0.5" y="0.5" width="3" fill="none"/>
          </g>
        </g>
      </g>
      <g id="Group_4" data-name="Group 4" transform="translate(9.549 16.711)">
        <g id="Group_1-2" data-name="Group 1" transform="translate(0 0)">
          <rect id="Rectangle_5-3" data-name="Rectangle 5" width="5" height="5" rx="1" transform="translate(0.451 0.465)" fill="none" stroke="#000" stroke-width="2"/>
          <g id="Rectangle_6-3" data-name="Rectangle 6" transform="translate(8.451 0.465)" stroke="#000" stroke-width="1">
            <rect width="6" height="2" stroke="none"/>
            <rect x="0.5" y="0.5" width="5" height="1" fill="none"/>
          </g>
          <g id="Rectangle_7-3" data-name="Rectangle 7" transform="translate(8.451 3.465)" stroke="#000" stroke-width="1">
            <rect width="3" height="1" stroke="none"/>
            <rect x="0.5" y="0.5" width="2" fill="none"/>
          </g>
        </g>
        <g id="Group_2-2" data-name="Group 2" transform="translate(19.894 0)">
          <rect id="Rectangle_5-4" data-name="Rectangle 5" width="5" height="5" rx="1" transform="translate(-0.443 0.465)" fill="none" stroke="#000" stroke-width="2"/>
          <g id="Rectangle_6-4" data-name="Rectangle 6" transform="translate(7.557 0.465)" stroke="#000" stroke-width="1">
            <rect width="6" height="2" stroke="none"/>
            <rect x="0.5" y="0.5" width="5" height="1" fill="none"/>
          </g>
          <g id="Rectangle_7-4" data-name="Rectangle 7" transform="translate(7.557 3.465)" stroke="#000" stroke-width="1">
            <rect width="4" height="1" stroke="none"/>
            <rect x="0.5" y="0.5" width="3" fill="none"/>
          </g>
        </g>
      </g>
      <g id="Rectangle_8" data-name="Rectangle 8" transform="translate(14 34.176)" stroke="#000" stroke-width="1">
        <rect width="3" height="6" stroke="none"/>
        <rect x="0.5" y="0.5" width="2" height="5" fill="none"/>
      </g>
      <g id="Rectangle_9" data-name="Rectangle 9" transform="translate(37 34.176)" stroke="#000" stroke-width="1">
        <rect width="1" height="6" stroke="none"/>
        <rect x="0.5" y="0.5" height="5" fill="none"/>
      </g>
      <g id="Rectangle_10" data-name="Rectangle 10" transform="translate(10 40.176)" stroke="#000" stroke-width="1">
        <rect width="33" height="2" rx="1" stroke="none"/>
        <rect x="0.5" y="0.5" width="32" height="1" rx="0.5" fill="none"/>
      </g>
    </g>
    <g id="Rectangle_11" data-name="Rectangle 11" transform="translate(110 14.176)" stroke="#fff" stroke-linejoin="round" stroke-width="1">
      <rect width="5" height="2" rx="1" stroke="none"/>
      <rect x="0.5" y="0.5" width="4" height="1" rx="0.5" fill="none"/>
    </g>
  </g>
</svg>
